  <svg
    width="16"
    height="16"
    viewBox="0 0 16 16"
    fill="none"
    xmlns="http://www.w3.org/2000/svg"
  >
    <g clipPath="url(#clip0_422_7116)">
      <path
        d="M16 8C16 9.58225 15.5308 11.129 14.6518 12.4446C13.7727 13.7602 12.5233 14.7855 11.0615 15.391C9.59966 15.9965 7.99113 16.155 6.43928 15.8463C4.88743 15.5376 3.46197 14.7757 2.34315 13.6569C1.22433 12.538 0.462403 11.1126 0.153721 9.56072C-0.15496 8.00887 0.00346624 6.40034 0.608967 4.93853C1.21447 3.47672 2.23985 2.22729 3.55544 1.34824C4.87104 0.469192 6.41775 0 8 0C10.1217 0 12.1566 0.842855 13.6569 2.34315C15.1572 3.84344 16 5.87827 16 8Z"
        fill="#F7931A"
      />
      <path
        fillRule="evenodd"
        clipRule="evenodd"
        d="M5.68647 3.65304L7.52501 4.14541L7.93592 2.61377L8.85519 2.86322L8.46029 4.33159L9.2101 4.53304L9.60574 3.04868L10.541 3.29886L10.1381 4.79122C10.1381 4.79122 11.6654 5.12941 12.0246 6.37159C12.3839 7.61377 11.2348 8.26613 10.8799 8.29086C10.8799 8.29086 12.2181 9.02468 11.7585 10.4683C11.2988 11.912 9.88792 12.1701 8.40356 11.8392L8.00065 13.3869L7.06538 13.1367L7.47629 11.613L6.73447 11.4109L6.32356 12.9454L5.39556 12.696L5.80719 11.1687L3.91992 10.6596L4.39556 9.60359C4.39556 9.60359 4.92792 9.74904 5.12938 9.79704C5.33083 9.84504 5.46029 9.63559 5.51701 9.42613C5.57374 9.21668 6.42829 5.74541 6.50901 5.45959C6.58974 5.17377 6.55701 4.9505 6.2181 4.8625C5.87919 4.7745 5.4181 4.63704 5.4181 4.63704L5.68647 3.65304ZM7.54101 8.25013L7.03192 10.2741C7.03192 10.2741 9.55629 11.1854 9.87919 9.90322C10.2021 8.62104 7.54101 8.25013 7.54101 8.25013ZM7.77519 7.29013L8.27483 5.43559C8.27483 5.43559 10.4363 5.8225 10.1701 6.8545C9.90392 7.8865 8.62974 7.49086 7.77519 7.29013Z"
        fill="white"
      />
    </g>
    <defs>
      <clipPath id="clip0_422_7116">
        <rect width="16" height="16" fill="white" />
      </clipPath>
    </defs>
  </svg>